<svg id="Layer_1" data-name="Layer 1" xmlns="http://www.w3.org/2000/svg" xmlns:xlink="http://www.w3.org/1999/xlink" viewBox="0 0 106.71 130.38"><defs><style>.cls-1{fill:none;}.cls-2{clip-path:url(#clip-path);}.cls-3{fill:#1d8893;}</style><clipPath id="clip-path" transform="translate(0 0)"><rect class="cls-1" width="106.71" height="130.38"/></clipPath></defs><title>bday</title><g class="cls-2"><path class="cls-3" d="M47.41,128h0a44.48,44.48,0,0,1-28.15-9.37C-6.5,98.42-3.27,66.1,10.63,44.61c13.24-20.46,38.91-20.69,40-20.69s2.39-.06,3.57-.06c39.13,0,48,22.75,51.81,47.34,4.23,27.5-12,39.45-17.28,43.38l-.54.4c-3.66,2.74-21.31,13-40.78,13M54.2,26.43c-1.15,0-2.32,0-3.52.06-.3,0-25.41.22-37.89,19.52C-.51,66.54-3.65,97.39,20.84,116.59a42,42,0,0,0,26.57,8.82c18.58,0,35.94-10,39.24-12.48l.56-.41c5-3.7,20.26-15,16.27-40.93C99.3,44.49,89.33,26.43,54.2,26.43" transform="translate(0 0)"/><path class="cls-3" d="M56.17,114.45h0c-8.81,0-30.43-1.77-40.84-18.19C2.4,75.89,14,57.81,23.76,46c9.38-12.3,27-12.66,29-12.66,27,.22,41.62,14.52,43.63,42.5,1.82,25.35-25,35.52-33.25,38a29.45,29.45,0,0,1-7,.59M53,35.9c-2.12,0-18.54.35-27.19,11.69C15.65,59.78,5.6,76.13,17.49,94.89c10,15.77,32.13,17,38.68,17a30.4,30.4,0,0,0,6.06-.43c8-2.43,33.29-12,31.61-35.44C91.94,49.6,78.19,36.1,53,35.9Z" transform="translate(0 0)"/><rect class="cls-3" x="50.62" y="49.62" width="2.57" height="49.64" transform="translate(-29.78 34.92) rotate(-29.3)"/><rect class="cls-3" x="44.55" y="77.04" width="24.74" height="2.57" transform="translate(-28.43 32.6) rotate(-25.82)"/><path class="cls-3" d="M25.13,59.55A2.12,2.12,0,1,1,23,57.43a2.12,2.12,0,0,1,2.12,2.12" transform="translate(0 0)"/><path class="cls-3" d="M19.83,75.92a2.12,2.12,0,1,1-2.12-2.12,2.12,2.12,0,0,1,2.12,2.12" transform="translate(0 0)"/><path class="cls-3" d="M26.19,93.48a2.12,2.12,0,1,1-2.12-2.12,2.12,2.12,0,0,1,2.12,2.12" transform="translate(0 0)"/><path class="cls-3" d="M38.49,103.66a2.12,2.12,0,1,1-2.12-2.12,2.12,2.12,0,0,1,2.12,2.12" transform="translate(0 0)"/><path class="cls-3" d="M56.41,107.26a2.12,2.12,0,1,1-2.12-2.12,2.12,2.12,0,0,1,2.12,2.12" transform="translate(0 0)"/><path class="cls-3" d="M75.59,101.54a2.12,2.12,0,1,1-2.12-2.12,2.12,2.12,0,0,1,2.12,2.12" transform="translate(0 0)"/><path class="cls-3" d="M88.32,88.6a2.12,2.12,0,1,1-2.12-2.12,2.12,2.12,0,0,1,2.12,2.12" transform="translate(0 0)"/><path class="cls-3" d="M90.44,72.49a2.12,2.12,0,1,1-2.12-2.12,2.12,2.12,0,0,1,2.12,2.12" transform="translate(0 0)"/><path class="cls-3" d="M84.92,54.47a2.12,2.12,0,1,1-2.12-2.12,2.12,2.12,0,0,1,2.12,2.12" transform="translate(0 0)"/><path class="cls-3" d="M70.93,44.29a2.12,2.12,0,1,1-2.12-2.12,2.12,2.12,0,0,1,2.12,2.12" transform="translate(0 0)"/><path class="cls-3" d="M54.29,40.26a2.12,2.12,0,1,1-2.12-2.12,2.12,2.12,0,0,1,2.12,2.12" transform="translate(0 0)"/><path class="cls-3" d="M38.49,46.41a2.12,2.12,0,1,1-2.12-2.12,2.12,2.12,0,0,1,2.12,2.12" transform="translate(0 0)"/><path class="cls-3" d="M59.28,16.16a72.92,72.92,0,0,0-7.52.63l.61,0h.1l.42,7.11-1.88,0c-.84-3-1.22-6-1-6.94-.85.08-1.68.14-2.49.17-.31,2.82.84,7,1.29,8.41l.27.88.92,0s11.3.29,14.18.33h.44l.35-.26c.8-.59.89-1.67,1.08-5.33.06-1.17.13-2.49.24-3.77a3.12,3.12,0,0,0-.05-1c-1.88-.11-4.13-.3-7-.3m-.66,4.27c0,.87,0,1.61-.06,2.29,0,.48,0,.92,0,1.36L55.47,24l-.42-7a27.58,27.58,0,0,0,3.28-.1h.3c0,1.24,0,2.65,0,3.56m5.12-3.27c-.12,1.36-.19,2.7-.25,3.9s-.12,2.36-.22,3.13l-2.18,0c0-.44,0-.87,0-1.34,0-.69,0-1.45.06-2.33s0-2.4,0-3.68l.93,0a7.08,7.08,0,0,1,1.62.13Z" transform="translate(0 0)"/><path class="cls-3" d="M46.66,18.42c-2.2,0-8.87,0-9.65-7.31h0a7.47,7.47,0,0,1,1.11-5.53c1.71-2.64,5-4.35,9.76-5.1A49.78,49.78,0,0,1,55.3,0c6,0,16.86.86,19.43,4.07,3,3.71,3,7.6,0,11.27-1.78,2.19-4,2.5-6.15,2.5-1,0-2.09-.07-3.37-.16-1.69-.11-3.61-.24-5.93-.24a57.67,57.67,0,0,0-6.13.48,59.8,59.8,0,0,1-6.49.5M55.3,2.57a47.36,47.36,0,0,0-7,.45c-4,.62-6.73,2-8,4a5,5,0,0,0-.75,3.67c.42,3.76,2.47,5.21,7.13,5.21a58,58,0,0,0,6.21-.48,59.22,59.22,0,0,1,6.42-.5c2.4,0,4.36.13,6.09.24,1.21.08,2.27.15,3.2.15,2.17,0,3.22-.39,4.16-1.55,2.21-2.72,2.21-5.28,0-8C71.36,4,63.54,2.57,55.3,2.57" transform="translate(0 0)"/><path class="cls-3" d="M23.58,25.82a24.89,24.89,0,0,1-6.1,4.63,3.42,3.42,0,0,1-1.35.35l4.19,6.11,7.6-5.74Zm-4.72,4.44L22,27.93l3.15,3.74-3.62,2.45Z" transform="translate(0 0)"/><path class="cls-3" d="M15.94,32.11h0c-2.33,0-4.46-1.75-6.35-5.21-1-1.86-.82-5-.8-5.32a8.91,8.91,0,0,1,4.6-5.81,7,7,0,0,1,2.54-.45,9.62,9.62,0,0,1,3.49.69,12,12,0,0,1,5,5.14l.36.81c.72,1.6.9,2,.44,3.3-.07.19-.15.44-.25.77l-.09.29-.2.22a26.29,26.29,0,0,1-6.61,5,4.72,4.72,0,0,1-2.11.51m0-14.21a4.43,4.43,0,0,0-1.61.28,6.61,6.61,0,0,0-3,3.72,8.93,8.93,0,0,0,.5,3.78c1.36,2.5,2.82,3.87,4.09,3.87a2.16,2.16,0,0,0,1-.25A23.49,23.49,0,0,0,22.58,25c.07-.23.14-.42.2-.58a2.58,2.58,0,0,0,.11-.36c0-.06-.24-.53-.46-1L22,22.21a9.41,9.41,0,0,0-3.74-3.87,7.27,7.27,0,0,0-2.38-.44" transform="translate(0 0)"/><path class="cls-3" d="M106.67,80.56c-.74,20.06-13.37,29.39-17.94,32.77l-.54.4c-3.66,2.74-21.31,13-40.78,13h0a44.48,44.48,0,0,1-28.15-9.37C6.07,107,.49,93.51,0,79.9-.45,94.72,4.89,109.75,19.25,121a44.48,44.48,0,0,0,28.15,9.37h0c19.47,0,37.12-10.25,40.78-13l.54-.4c4.85-3.58,18.72-13.83,17.94-36.43" transform="translate(0 0)"/></g></svg>