<svg xmlns="http://www.w3.org/2000/svg" xmlns:xlink="http://www.w3.org/1999/xlink" viewBox="0 0 245.49 263.09"><defs><style>.cls-1{fill:none;}.cls-2{isolation:isolate;}.cls-3{clip-path:url(#clip-path);}.cls-4{fill:#466671;}.cls-5{clip-path:url(#clip-path-3);}.cls-6{mix-blend-mode:multiply;}.cls-7{clip-path:url(#clip-path-4);}.cls-8{fill:#334a52;}.cls-9{clip-path:url(#clip-path-5);}.cls-10{clip-path:url(#clip-path-6);}.cls-11{clip-path:url(#clip-path-7);}.cls-12{clip-path:url(#clip-path-8);}.cls-13{clip-path:url(#clip-path-9);}.cls-14{fill:#fff;}</style><clipPath id="clip-path" transform="translate(0)"><rect class="cls-1" width="245.49" height="263.09"/></clipPath><clipPath id="clip-path-3" transform="translate(0)"><circle class="cls-1" cx="108" cy="108" r="108"/></clipPath><clipPath id="clip-path-4" transform="translate(0)"><rect class="cls-1" x="134.45" y="49.7" width="107.15" height="113.29"/></clipPath><clipPath id="clip-path-5" transform="translate(0)"><rect class="cls-1" x="106.78" y="49.7" width="28.67" height="43.19"/></clipPath><clipPath id="clip-path-6" transform="translate(0)"><rect class="cls-1" x="79.11" y="49.7" width="29.38" height="44.02"/></clipPath><clipPath id="clip-path-7" transform="translate(0)"><rect class="cls-1" x="59.91" y="73" width="185.58" height="190.09"/></clipPath><clipPath id="clip-path-8" transform="translate(0)"><rect class="cls-1" x="112.33" y="72.98" width="21.5" height="38.35"/></clipPath><clipPath id="clip-path-9" transform="translate(0)"><rect class="cls-1" x="84.88" y="72.98" width="21.5" height="38.35"/></clipPath></defs><title>birthday</title><g class="cls-2"><g id="Layer_1" data-name="Layer 1"><g class="cls-3"><g class="cls-3"><path class="cls-4" d="M216,108A108,108,0,1,1,108,0,108,108,0,0,1,216,108" transform="translate(0)"/></g><g class="cls-5"><g class="cls-6"><g class="cls-7"><polygon class="cls-8" points="232.88 163 134.45 64.56 137.01 49.7 241.6 154.28 232.88 163"/></g></g><g class="cls-6"><g class="cls-9"><polygon class="cls-8" points="135.11 92.89 106.78 64.56 109.34 49.7 135.45 75.81 135.11 92.89"/></g></g><g class="cls-6"><g class="cls-10"><polygon class="cls-8" points="108.28 93.72 79.11 64.56 81.68 49.7 108.49 76.51 108.28 93.72"/></g></g><g class="cls-6"><g class="cls-11"><polygon class="cls-8" points="164.27 263.09 59.91 158.73 155.81 154.25 156.07 121.41 139.68 107.06 140.32 73 245.49 178.16 164.27 263.09"/></g></g><g class="cls-6"><g class="cls-12"><polygon class="cls-8" points="133.84 111.33 112.33 104 112.88 72.98 133.2 93.3 133.84 111.33"/></g></g><g class="cls-6"><g class="cls-13"><polygon class="cls-8" points="106.38 111.33 84.88 104 85.43 72.98 105.75 93.3 106.38 111.33"/></g></g></g><g class="cls-3"><path class="cls-14" d="M135.48,69.56a6.21,6.21,0,0,0,4.93-2.25A9.43,9.43,0,0,0,142.35,61a15.58,15.58,0,0,0-2.36-8q-2.36-4-4.5-4a9.16,9.16,0,0,1-1.29,5.15,8.7,8.7,0,0,1-2.36,2.68,10.36,10.36,0,0,0-2.36,2.47,6.09,6.09,0,0,0-.86,3.43,7,7,0,0,0,6.86,6.86" transform="translate(0)"/><path class="cls-14" d="M108,69.56A6.2,6.2,0,0,0,113,67.31,9.43,9.43,0,0,0,114.89,61a15.58,15.58,0,0,0-2.36-8q-2.36-4-4.5-4a9.15,9.15,0,0,1-1.29,5.15,8.66,8.66,0,0,1-2.36,2.68A10.37,10.37,0,0,0,102,59.27a6.09,6.09,0,0,0-.86,3.43A7,7,0,0,0,108,69.56" transform="translate(0)"/><path class="cls-14" d="M80.57,69.56a6.2,6.2,0,0,0,4.93-2.25A9.43,9.43,0,0,0,87.44,61a15.58,15.58,0,0,0-2.36-8q-2.36-4-4.5-4a9.15,9.15,0,0,1-1.29,5.15,8.68,8.68,0,0,1-2.36,2.68,10.36,10.36,0,0,0-2.36,2.47,6.09,6.09,0,0,0-.86,3.43,7,7,0,0,0,6.86,6.86" transform="translate(0)"/><path class="cls-14" d="M153.07,106.88a9.93,9.93,0,0,0-7.29-3h-5.43V73h-9.72v30.89H112.89V73h-9.72v30.89H85.43V73H75.71v30.89H70.28a9.93,9.93,0,0,0-7.29,3c-2,2-3,7.44-3,10.3v7.15a7.6,7.6,0,0,0,3.43-.86L66,121.54a30.36,30.36,0,0,1,3.86-2.79,14.67,14.67,0,0,1,6.22-1.29,13.27,13.27,0,0,1,6,1.29,30.36,30.36,0,0,1,3.86,2.79q1.72,1.29,2.79,1.93a6.86,6.86,0,0,0,6.65,0,20,20,0,0,0,2.79-1.93,30.36,30.36,0,0,1,3.86-2.79,14.66,14.66,0,0,1,12,0,18.21,18.21,0,0,1,3.86,2.79,20.13,20.13,0,0,0,2.79,1.93,7.61,7.61,0,0,0,3.43.86,6.37,6.37,0,0,0,3.22-.86q1.07-.64,2.79-1.93a30.36,30.36,0,0,1,3.86-2.79,15.16,15.16,0,0,1,12.23,0,30.36,30.36,0,0,1,3.86,2.79l2.57,1.93a7.6,7.6,0,0,0,3.43.86v-7.15c0-2.86-1-8.29-3-10.3" transform="translate(0)"/><path class="cls-14" d="M146.21,124.11a20.06,20.06,0,0,0-2.79-1.93,6.86,6.86,0,0,0-6.65,0q-1.07.64-2.79,1.93a30.36,30.36,0,0,1-3.86,2.79,13.27,13.27,0,0,1-6,1.29,14.67,14.67,0,0,1-6.22-1.29,30.36,30.36,0,0,1-3.86-2.79l-2.57-1.93a7.61,7.61,0,0,0-3.43-.86,6.37,6.37,0,0,0-3.22.86,10.89,10.89,0,0,0-2.79,1.93,30.36,30.36,0,0,1-3.86,2.79,14.67,14.67,0,0,1-6.22,1.29,13.27,13.27,0,0,1-6-1.29,30.36,30.36,0,0,1-3.86-2.79q-1.72-1.29-2.79-1.93a6.86,6.86,0,0,0-6.65,0q-1.07.64-2.79,1.93A30.36,30.36,0,0,1,66,126.9a13.27,13.27,0,0,1-6,1.29v30.6h96.09v-30.6a13.27,13.27,0,0,1-6-1.29,18.26,18.26,0,0,1-3.86-2.79M76.5,151a4,4,0,1,1,4-4,4,4,0,0,1-4,4m20.93,0a4,4,0,1,1,4-4,4,4,0,0,1-4,4m20.93,0a4,4,0,1,1,4-4,4,4,0,0,1-4,4m20.93,0a4,4,0,1,1,4-4,4,4,0,0,1-4,4" transform="translate(0)"/></g></g></g></g></svg>