<svg xmlns="http://www.w3.org/2000/svg" xmlns:xlink="http://www.w3.org/1999/xlink" viewBox="0 0 251.37 255.06"><defs><style>.cls-1{fill:none;}.cls-2{isolation:isolate;}.cls-3{clip-path:url(#clip-path);}.cls-4{fill:#1d8893;}.cls-5{clip-path:url(#clip-path-3);}.cls-6{mix-blend-mode:multiply;}.cls-7{clip-path:url(#clip-path-4);}.cls-8{fill:#176a72;}.cls-9{fill:#fff;}</style><clipPath id="clip-path" transform="translate(0)"><rect class="cls-1" width="251.37" height="255.06"/></clipPath><clipPath id="clip-path-3" transform="translate(0)"><circle class="cls-1" cx="108" cy="108" r="108"/></clipPath><clipPath id="clip-path-4" transform="translate(0)"><rect class="cls-1" x="50.25" y="58.92" width="201.11" height="196.13"/></clipPath></defs><title>link</title><g class="cls-2"><g id="Layer_1" data-name="Layer 1"><g class="cls-3"><g class="cls-3"><path class="cls-4" d="M216,108A108,108,0,1,1,108,0,108,108,0,0,1,216,108" transform="translate(0)"/></g><g class="cls-5"><g class="cls-6"><g class="cls-7"><polygon class="cls-8" points="205.7 255.06 114.12 163.47 50.25 95.83 53.12 76.15 77.18 58.92 117.1 74.64 145.85 103.88 159.17 117.19 251.37 209.39 205.7 255.06"/></g></g></g><g class="cls-3"><path class="cls-9" d="M114.58,101.58c-4.32,3.29-7.43,5.15-9.91,7.64-6.93,7-6.93,14.65,0,21.73,7.95,8.17,16,16.25,24.21,24.15,7,6.73,14.55,6.32,21.73-.79s7.75-14.54,1.36-21.72a5.92,5.92,0,0,0-.89-.9c-11.94-8.59-17.74-19.54-12.23-34.58a44.07,44.07,0,0,1,3.43,2.86c6.76,6.67,13.53,13.34,20.19,20.11,13.68,13.88,13.53,31.63-.31,45.48s-31.74,14-45.48.33c-8.25-8.17-16.55-16.3-24.56-24.7-14.34-15-10-40.12,8.55-49.7,1.26-.65,3.72-1,4.48-.26,3.4,3.23,6.39,6.89,9.47,10.33" transform="translate(0)"/><path class="cls-9" d="M79.56,126.87c-9.14-8.69-19.79-17.2-28.41-27.42-10.72-12.72-7.31-29.93,6.74-42.78,11.32-10.36,29-10.83,40.45-.33,9.79,9,19.29,18.37,28.21,28.21,13.48,14.87,8.13,40.3-9.88,48.72-1.24.58-3.61.61-4.45-.18-3.3-3.07-6.2-6.57-9.14-9.79,4.42-3.71,8.31-6.29,11.32-9.65,5-5.6,5.09-12.89-.08-18.39C105.81,86.17,97,77.32,87.94,68.79c-6.62-6.22-14.24-5.26-21.22,1.85s-7.36,14.43-1.07,21.28c4.29,4.66,9,8.9,13.29,13.59a8.3,8.3,0,0,1,2,5.35c-.21,5.62-.93,11.23-1.38,16" transform="translate(0)"/></g></g></g></g></svg>