<svg xmlns="http://www.w3.org/2000/svg" xmlns:xlink="http://www.w3.org/1999/xlink" viewBox="0 0 246.17 247"><defs><style>.cls-1{fill:none;}.cls-2{isolation:isolate;}.cls-3{fill:#ffcc3b;}.cls-4{clip-path:url(#clip-path);}.cls-5{fill:#e2b534;mix-blend-mode:multiply;}.cls-6{fill:#fff;}.cls-7{fill:#e2b534;}</style><clipPath id="clip-path" transform="translate(0 0)"><circle class="cls-1" cx="108" cy="108" r="108"/></clipPath></defs><title>send</title><g class="cls-2"><g id="send"><circle class="cls-3" cx="108" cy="108" r="108"/><g class="cls-4"><polygon class="cls-5" points="143 247 64.47 168.22 68.4 46.28 136.73 46.28 173.81 74.03 142.33 60.97 140.85 45.26 171.02 75.42 178.24 75.22 246.17 143.39 143 247"/></g><path class="cls-6" d="M144,130v30.59a12.28,12.28,0,0,1-12.33,12.33H74.13A12.28,12.28,0,0,1,61.8,160.59V53.71A12.28,12.28,0,0,1,74.13,41.38h57.55A12.28,12.28,0,0,1,144,53.71v6.8l-8.64.58v-8a3.19,3.19,0,0,0-1-2.39,3.43,3.43,0,0,0-2.47-1H73.75a3.43,3.43,0,0,0-2.47,1,3.19,3.19,0,0,0-1,2.39v87.55a3.19,3.19,0,0,0,1,2.39,3.43,3.43,0,0,0,2.47,1h58.14a3.43,3.43,0,0,0,2.47-1,3.19,3.19,0,0,0,1-2.39v-9.19Zm-41.11,34.7a8.34,8.34,0,1,0-5.78-2.44A7.9,7.9,0,0,0,102.91,164.7Z" transform="translate(0 0)"/><path class="cls-6" d="M97.87,139.64a5.13,5.13,0,0,1-4.82-3.31,5.37,5.37,0,0,1,.67-5.32l.37-.43a33.45,33.45,0,0,0,3.37-4.28,35,35,0,0,0,4.11-7.7,39.44,39.44,0,0,1-6.13-9.48A31.78,31.78,0,0,1,92.6,95.86a32.85,32.85,0,0,1,6.48-19.66A44,44,0,0,1,116,62.44a55.19,55.19,0,0,1,46.05,0A44,44,0,0,1,179,76.21a33.07,33.07,0,0,1,0,39.32,44,44,0,0,1-16.92,13.77,52.89,52.89,0,0,1-23,5,54.81,54.81,0,0,1-17.09-2.69,49.12,49.12,0,0,1-8.18,4.67A40.06,40.06,0,0,1,97.87,139.64ZM139,65.29a45.06,45.06,0,0,0-19.62,4.26,36.23,36.23,0,0,0-13.95,11.29,24.79,24.79,0,0,0-5,15,24,24,0,0,0,2.14,10,32.26,32.26,0,0,0,6.22,9l1.53,1.59-.55,2.13a39.39,39.39,0,0,1-5.88,12.2l-.3.42a33.23,33.23,0,0,0,6.95-2.13,41.53,41.53,0,0,0,8.28-5l1.73-1.33,2,.76A46.73,46.73,0,0,0,139,126.44a45.08,45.08,0,0,0,19.62-4.26,36.23,36.23,0,0,0,13.95-11.29,25.19,25.19,0,0,0,0-30.05,36.22,36.22,0,0,0-13.95-11.29A45.06,45.06,0,0,0,139,65.29Z" transform="translate(0 0)"/><rect class="cls-6" x="113.19" y="81.24" width="52.27" height="9.93" rx="4.96" ry="4.96"/><rect class="cls-6" x="113.19" y="98.77" width="52.27" height="9.93" rx="4.96" ry="4.96"/><path class="cls-7" d="M58,175.5" transform="translate(0 0)"/></g></g></svg>